<svg xmlns="http://www.w3.org/2000/svg" viewBox="0 0 863.39 290.96"><defs><style>.cls-1,.cls-2{fill:none;stroke:#fff;stroke-miterlimit:10;}.cls-1{stroke-width:2px;}</style></defs><title>bridge</title><g id="Layer_1" data-name="Layer 1"><g id="Layer_6" data-name="Layer 6"><line class="cls-1" x1="139.9" y1="99.09" x2="133.59" y2="241.18"/><line class="cls-1" x1="183.85" y1="100.15" x2="186.11" y2="232.81"/><line class="cls-1" x1="186.94" y1="237.53" x2="186.94" y2="290.96"/><polyline class="cls-1" points="175.78 290.29 175.78 249.78 142.94 249.28 142.94 290.96"/><line class="cls-1" x1="133.59" y1="244.58" x2="131.28" y2="290.13"/></g><g id="Layer_4" data-name="Layer 4"><line class="cls-2" x1="814.39" y1="14.47" x2="831.15" y2="130.05"/><line class="cls-2" x1="739.52" y1="33.92" x2="751.27" y2="142.78"/><line class="cls-2" x1="672.58" y1="50.15" x2="683.32" y2="153.6"/><line class="cls-2" x1="616.41" y1="62.88" x2="628.2" y2="162.38"/><line class="cls-2" x1="567.3" y1="73.28" x2="576.17" y2="170.67"/><line class="cls-2" x1="525.83" y1="81.46" x2="534.69" y2="177.28"/><line class="cls-2" x1="488.24" y1="88.35" x2="495" y2="183.6"/><line class="cls-2" x1="454.9" y1="93.98" x2="461.3" y2="188.97"/><line class="cls-2" x1="424.03" y1="98.74" x2="431.94" y2="192.96"/><line class="cls-2" x1="398.05" y1="102.35" x2="404.88" y2="197.96"/><line class="cls-2" x1="374" y1="105.35" x2="379.11" y2="201.29"/><line class="cls-2" x1="350.52" y1="107.9" x2="357.97" y2="205.44"/><line class="cls-2" x1="331.6" y1="109.64" x2="338.65" y2="208.51"/><line class="cls-2" x1="343.11" y1="121.98" x2="338.65" y2="208.51"/><line class="cls-2" x1="360.06" y1="118.75" x2="357.97" y2="205.44"/><line class="cls-2" x1="379.11" y1="118.75" x2="379.11" y2="201.29"/><line class="cls-2" x1="399.22" y1="118.75" x2="399.22" y2="198.86"/><line class="cls-2" x1="424.03" y1="114.45" x2="421.46" y2="195.32"/><line class="cls-2" x1="447.61" y1="113.29" x2="447.61" y2="191.71"/><line class="cls-2" x1="477.11" y1="109.64" x2="473.57" y2="187.02"/><line class="cls-2" x1="506.61" y1="107.9" x2="502.22" y2="182.46"/><line class="cls-2" x1="542.03" y1="100.79" x2="539.61" y2="175.29"/><line class="cls-2" x1="579.05" y1="95.39" x2="579.05" y2="170.21"/><polyline class="cls-2" points="622.31 88.55 619.61 162.38 622.31 88.55"/><line class="cls-2" x1="669.55" y1="80.47" x2="669.55" y2="153.6"/><line class="cls-2" x1="313.09" y1="111.06" x2="319.16" y2="211.62"/><line class="cls-2" x1="326.77" y1="119.7" x2="325.49" y2="210.61"/><line class="cls-2" x1="296.8" y1="112.02" x2="302.77" y2="214.23"/><line class="cls-2" x1="311.45" y1="119.75" x2="309.48" y2="213.16"/><line class="cls-2" x1="280.45" y1="112.7" x2="286.75" y2="216.78"/><line class="cls-2" x1="283.6" y1="119.08" x2="280.45" y2="217.79"/><line class="cls-2" x1="297.25" y1="119.75" x2="294.02" y2="215.62"/><line class="cls-2" x1="266.61" y1="113" x2="272.3" y2="219.08"/><line class="cls-2" x1="272.3" y1="118.47" x2="268.81" y2="219.64"/><line class="cls-2" x1="261.07" y1="117.62" x2="257.82" y2="221.39"/><line class="cls-2" x1="252.94" y1="113.04" x2="259.44" y2="221.13"/><line class="cls-2" x1="250.08" y1="116.53" x2="246.53" y2="223.19"/><line class="cls-2" x1="240.49" y1="115.33" x2="245.57" y2="223.34"/><polyline class="cls-2" points="240.49 115.33 236.39 224.8 230.53 113.79 230.53 225.74"/><line class="cls-2" x1="221.11" y1="112.02" x2="223.02" y2="226.93"/><line class="cls-2" x1="217.39" y1="111.22" x2="213.52" y2="228.45"/><line class="cls-2" x1="213.46" y1="111.22" x2="212.28" y2="228.45"/><line class="cls-2" x1="207.78" y1="111.22" x2="208.76" y2="229.21"/><polyline class="cls-2" points="205.14 110.37 202.94 229.21 198.11 109.5"/><polyline class="cls-2" points="189.62 108.21 194.26 231.52 197.11 109.5"/><line class="cls-2" x1="132.18" y1="115.33" x2="132.18" y2="241.41"/><line class="cls-2" x1="128.1" y1="123.41" x2="129.61" y2="241.41"/><line class="cls-2" x1="123.12" y1="132.95" x2="126.41" y2="242.33"/><line class="cls-2" x1="117.72" y1="142.94" x2="121.37" y2="243.13"/><line class="cls-2" x1="112.76" y1="151.79" x2="115.78" y2="244.02"/><line class="cls-2" x1="108.71" y1="158.81" x2="112.76" y2="244.5"/><path class="cls-2" d="M104.4,166c-.78,1.3,4.31,78.46,4.31,78.46" transform="translate(0 0)"/><line class="cls-2" x1="100.21" y1="172.89" x2="104.32" y2="245.84"/><line class="cls-2" x1="96.75" y1="178.37" x2="97.8" y2="246.88"/><line class="cls-2" x1="92.51" y1="184.89" x2="94.59" y2="247.4"/><line class="cls-2" x1="89.76" y1="188.99" x2="91.3" y2="247.92"/><line class="cls-2" x1="85.47" y1="195.2" x2="87.64" y2="248.5"/><line class="cls-2" x1="81.72" y1="200.44" x2="82.9" y2="249.26"/><line class="cls-2" x1="78.12" y1="205.27" x2="79.65" y2="249.78"/><line class="cls-2" x1="75.6" y1="208.54" x2="75.6" y2="250.42"/><line class="cls-2" x1="72.35" y1="212.63" x2="72.35" y2="250.94"/><line class="cls-2" x1="69.45" y1="216.14" x2="69.45" y2="251.4"/><line class="cls-2" x1="66.44" y1="219.64" x2="66.44" y2="251.88"/><line class="cls-2" x1="63.25" y1="223.19" x2="63.25" y2="251.88"/><line class="cls-2" x1="60.86" y1="225.74" x2="60.86" y2="252.77"/><line class="cls-2" x1="58.2" y1="228.45" x2="58.2" y2="253.19"/><line class="cls-2" x1="55.03" y1="231.52" x2="55.03" y2="253.7"/><line class="cls-2" x1="51.8" y1="234.43" x2="51.8" y2="254.21"/><line class="cls-2" x1="48.07" y1="237.53" x2="48.07" y2="254.81"/><line class="cls-2" x1="151.11" y1="101.54" x2="151.11" y2="238.39"/><line class="cls-2" x1="158.12" y1="102.71" x2="156.49" y2="237.53"/><line class="cls-2" x1="165.22" y1="103.89" x2="162.16" y2="236.63"/><line class="cls-2" x1="173.13" y1="105.2" x2="168.86" y2="234.43"/><line class="cls-2" x1="43.64" y1="240.82" x2="43.64" y2="254.81"/><line class="cls-2" x1="40.93" y1="242.61" x2="40.93" y2="255.94"/><line class="cls-2" x1="37.69" y1="244.5" x2="38.9" y2="257.07"/><line class="cls-2" x1="31.26" y1="247.4" x2="31.26" y2="258.08"/><line class="cls-2" x1="34.32" y1="246.17" x2="34.32" y2="257"/><line class="cls-2" x1="28.64" y1="248.22" x2="28.64" y2="257.9"/><line class="cls-2" x1="25.08" y1="248.97" x2="25.26" y2="258.44"/><path class="cls-2" d="M23.91,243.4c.06,0,0,15.25,0,15.25" transform="translate(0 0)"/><path class="cls-2" d="M26.65,245" transform="translate(0 0)"/></g><g id="Layer_2-2" data-name="Layer 2"><polyline class="cls-1" points="863.11 148.29 9.44 260.96 863.11 124.96"/><path class="cls-1" d="M863.11,1s-578.33,168-721,92.66c0,3.34-93.33,204-141.33,144.67" transform="translate(0 0)"/><path class="cls-1" d="M863.11,41.62s-543.67,126-680.33,58c0,0-115.34,191.34-164,139.34" transform="translate(0 0)"/><polygon class="cls-1" points="143.61 201.29 143.61 223.79 147.79 238.92 174.59 234.65 178.61 220.11 178.61 203.29 143.61 201.29"/><polygon class="cls-1" points="143.61 151.79 143.61 196.29 178.61 198.79 178.61 155.29 143.61 151.79"/><polygon class="cls-1" points="146.61 100.79 143.61 144.77 178.61 148.29 178.61 106.11 146.61 100.79"/><path class="cls-1" d="M701.44,247.92" transform="translate(0 0)"/></g><g id="Layer_5" data-name="Layer 5"><line class="cls-2" x1="814.39" y1="14.47" x2="831.15" y2="130.05"/><line class="cls-2" x1="789.42" y1="57.52" x2="794.06" y2="135.96"/><line class="cls-2" x1="739.52" y1="33.92" x2="751.27" y2="142.78"/><line class="cls-2" x1="727.54" y1="69.79" x2="730.14" y2="146.14"/><line class="cls-2" x1="672.58" y1="50.15" x2="683.32" y2="153.6"/><line class="cls-2" x1="669.55" y1="80.47" x2="669.55" y2="155.8"/><line class="cls-2" x1="616.41" y1="62.88" x2="628.2" y2="162.38"/></g></g></svg>