<svg xmlns="http://www.w3.org/2000/svg" viewBox="0 0 1280 1024"><defs><style>.cls-1{fill:#fff;}.cls-2{fill:none;stroke:#fff;stroke-miterlimit:10;stroke-width:3px;}</style></defs><title>taksinpin</title><g id="Layer_6" data-name="Layer 6"><path class="cls-1" d="M765.31,579.57a56.91,56.91,0,0,0-56.85,56.85c0,12.59,7.41,31.75,23.34,60.29,10.86,19.47,21.68,35.91,22.14,36.6l7.81,11.85a4.25,4.25,0,0,0,7.11,0l7.82-11.85c.45-.68,11.19-17,22.14-36.6,15.92-28.54,23.34-47.7,23.34-60.29A56.91,56.91,0,0,0,765.31,579.57Zm26.07,113C780.58,711.9,770,728,769.57,728.62l-4.26,6.46-4.26-6.46c-.45-.68-11.1-16.87-21.81-36.07C724.47,666.08,717,647.2,717,636.42a48.33,48.33,0,1,1,96.66,0C813.64,647.2,806.15,666.09,791.38,692.55Z"/><path class="cls-1" d="M765.31,604.54a31.52,31.52,0,1,0,31.52,31.52A31.56,31.56,0,0,0,765.31,604.54Zm0,54.52a23,23,0,1,1,23-23A23,23,0,0,1,765.31,659.06Z"/></g><g id="Layer_4_copy" data-name="Layer 4 copy"><path class="cls-2" d="M137.45,108.3l15.2,17.1s-1.9,3.8-3.8,3.8-7.6,7.6-1.9,13.3,39.9,49.4,43.7,51.3,32.3,28.49,34.2,28.49,0,5.7,0,5.7l3.8,7.6s3.8,1.9,3.8,5.7,3.8,5.7,3.8,5.7l5.7,3.8,9.5,1.9s7.6,1.9,7.6,9.5,13.3,3.8,13.3,3.8,17.1,20.9,24.7,30.4,9.5,7.6,9.5,9.5-3.8,3.8-3.8,5.7,17.1,20.9,19,20.9,9.49-1.9,13.29,1.9,7.6,11.4,3.8,19-5.7,19,1.9,22.8,7.6,13.3,11.4,15.2,15.2,3.8,17.1,11.4S392,414.19,392,418s9.5,13.3,11.4,13.3-1.9,9.5,3.8,11.4,7.6,9.5,11.4,11.4,15.2,3.8,11.4,7.6-1.9,11.4,3.8,11.4,1.9,3.8,1.9,11.4,11.4,11.39,13.3,11.39,0,13.3,0,13.3,9.5,20.9,15.2,22.8,19-5.7,22.8-5.7,3.8,3.8,7.6,5.7,7.6-5.7,9.5-3.8a75.75,75.75,0,0,1,5.7,7.6l9.5,1.9s-7.6,5.7-3.8,7.6,11.4-1.9,11.4,1.9-3.8,11.4-1.9,13.3,9.5,1.9,11.4,3.8,11.4,13.3,11.4,17.1,7.6,5.7,5.7,7.6-7.6,5.7-5.7,9.5,13.3,7.6,13.3,11.4,11.4,7.6,11.4,9.5-5.7,3.8-5.7,7.6-15.2,11.4-15.2,15.2,0,13.3,7.6,13.3,20.9,5.7,19,9.5-17.1,7.6-17.1,11.4-15.2,1.9-15.2,3.8-3.8,5.7,0,9.5-5.7,5.7-5.7,5.7,1.9,9.5-1.9,9.5-7.6,0-5.7,3.8,1.9,11.4,9.5,13.3,11.4,1.9,9.5,7.6,5.7,5.7,7.6,3.8,3.8,5.7,3.8,5.7-3.8,15.2-1.9,19,7.6,13.3,13.3,13.3,11.4-1.9,13.3,0,3.8,1.9,3.8,3.8,1.9,3.8,0,5.7,7.6,7.59,7.6,11.39-1.9,15.2-3.8,17.1,5.7,11.4,5.7,11.4,9.5,7.6,11.4,13.3,3.8,11.4,7.59,15.2,13.3,11.4,15.2,17.1,1.9,7.6,0,11.4-9.5,19-5.7,22.8,7.6,5.7,7.6,11.4,0,7.6,1.9,9.5,7.6,1.9,5.7,3.8-9.5,1.9-7.6,5.7,7.6,1.9,7.6,3.8-1.9,15.2,0,19,0,17.1,1.9,19,3.8,5.7,5.7,5.7,1.9-5.7,3.8-3.8,3.8,5.7,5.7,5.7,5.7-7.6,5.7-9.5,0-5.7,3.8-5.7,0-7.6,1.9-9.5,5.7-1.9,5.7-3.8-1.9-7.6,0-7.6,3.8-1.9,7.6-3.8-1.9-1.9,1.9-3.8,15.2,0,17.1-1.9,1.9-3.8,3.8-7.6,7.6-9.5,9.5-9.5,11.4-7.6,11.4-11.4,1.9-11.4,5.7-13.3,19-5.7,19-3.8,9.5,3.8,13.3,7.6,1.9,7.6,7.6,9.5,9.5,17.1,7.6,19-3.8,9.5-1.9,9.5,13.3,9.5,7.6,17.1-11.4,20.9-11.4,24.7,1.9,3.8,0,7.6-5.7,7.6-7.6,7.6-5.7,7.6-5.7,7.6-3.8,3.8-5.7,1.9-5.7,0-7.6,1.9-3.8,9.5-1.9,11.4,3.8,9.5,1.9,9.5-1.9,1.9,0,5.7,0,7.6-1.9,9.5-1.9,5.7-1.9,9.5,1.9,13.3-3.8,13.3-9.5,1.9-9.5,3.8-3.8,5.7-5.7,5.7-5.7,3.8-7.6,3.8-9.5-11.4-13.3-11.4-3.8,1.9-7.6,1.9-13.3,1.9-17.1,0-7.6,0-9.5-1.9-3.8-7.6-5.7-7.6-7.6,0-9.5,1.9-5.7,0-5.7,3.8,3.8,5.7,1.9,7.6-9.5,0-9.5,1.9,3.8,3.8,3.8,7.59-3.8,5.7-5.7,7.6,1.9,3.8,0,5.7-9.5,5.7-11.4,5.7-7.6-1.9-7.6,0,3.8,7.6,1.9,9.5-15.19,3.8-15.19,1.9,1.9-9.5,0-11.4-5.7-11.4-9.5-7.6-1.9,9.5-3.8,9.5-5.7,1.9-7.6,3.8-3.8,11.4-1.9,13.3,19,11.4,19,15.2a14.51,14.51,0,0,0,3.8,9.5c1.9,1.9,1.9,5.7,1.9,7.6s-5.7,9.5-7.6,9.5-1.9,7.6-1.9,9.5v1.9s0,5.7-1.9,7.6,0,17.1,1.9,20.9,9.5,7.6,7.6,13.3-17.1,36.1-20.9,58.9-13.3,41.8-7.6,53.2,9.5,11.4,13.3,7.6,3.8-1.9,5.7,1.9,11.4,5.7,17.1,5.7,3.79,9.5,5.69,9.5,5.7-7.6,7.6-7.6c5.7,0,7.6,7.6,9.5,19s22.8,30.39,24.7,36.09,9.5,11.4,9.5,15.2-5.7,9.5-7.6,7.6-1.9,1.9-1.9,1.9,13.3,15.2,20.9,15.2,7.6,5.7,7.6,9.5-1.9,11.4,1.9,13.3,11.4,7.6,11.4,11.4,15.2,17.1,20.9,22.8,3.8,15.2,7.6,17.1,11.4,1.9,15.2,5.7,17.1,19,17.1,22.8-5.7,9.5-3.8,11.4,17.1,0,17.1,3.8,0,11.4,5.7,11.4,13.3-1.9,15.2,0,5.7,9.5,5.7,13.3,1.9,15.2,3.8,19,9.5,5.7,13.3,3.8,7.6,0,7.6-3.8,1.9-26.6,3.8-26.6,3.8-1.9,3.8-7.6-1.9-11.4,3.8-15.2,7.6-7.6,5.7-9.5-3.8-5.7-3.8-11.4,1.9-17.1,5.7-19,1.9-15.2,3.8-17.1,13.3-7.6,13.3-11.4-5.7-19-5.7-24.7-1.9-15.2,1.9-19,9.5-7.6,9.5-11.4-11.4-15.2-13.3-19,0-5.7-1.9-9.5-7.6-7.6-3.8-11.4,15.2,0,22.8-11.4,15.2-28.49,15.2-32.29v-15.2c0-5.7,7.6-13.3,7.6-17.1s0-13.3,1.9-17.1,0-13.3-1.9-17.1-1.9-13.3,0-15.2,3.8-11.4-7.6-19-11.4-19-11.4-26.6-5.7-5.7-5.7-11.4-1.9-15.2,0-19,7.6-3.8,7.6-7.6-15.2-9.5-15.2-15.2,9.5-9.5,9.5-13.3-3.8-9.5-3.8-15.2,0-17.1,3.8-20.9,20.9-15.2,15.2-22.8-17.1-19-19-22.79-13.3-7.6-15.2-7.6-5.7-13.3-1.9-17.1,9.5-3.8,11.4-11.4,7.6-7.6,7.6-13.3-17.1-22.8-19-28.5-5.7-19-3.8-22.8,5.7-15.2,3.8-20.9-5.7-9.5-5.7-15.2,3.8-15.2-3.8-15.2-13.3,1.9-9.5-9.5,3.8-5.7,3.8-11.4-13.3-13.3-15.2-20.9-5.7-13.3-3.8-17.1,7.6-9.5,15.2,0,13.3,5.7,17.1,5.7,11.4-1.9,19,1.9,28.5-15.2,32.3-15.2,13.29,1.9,15.19-3.8,5.7-17.1,11.4-17.1,9.5,5.7,13.3,5.7,9.5-3.8,13.3-3.8,5.7-11.4,7.6-13.3,3.8-26.6,0-30.39-5.7-7.6-5.7-13.3,3.8-7.6,3.8-11.4-1.9-5.7,5.7-7.6,5.7-5.7,9.5-9.5-1.9-11.4,1.9-13.3,11.4-11.4,11.4-15.2,3.8-7.6,3.8-15.2-7.6-9.5-7.6-13.3,3.8-7.6,9.5-7.6,5.7-7.6,7.6-9.5,13.3-3.8,15.2-1.9,5.7,5.7,9.5,3.8,5.7,1.9,7.6-3.8,3.8-11.4,0-13.3-3.8-11.4-1.9-13.3,1.9-7.6,7.6-7.6,15.2-1.9,19-3.8,13.3,1.9,17.1,0,3.8-9.5,7.6-13.3,9.5-5.7,9.5-7.6-9.5-7.6-9.5-11.4,1.9-11.4,0-15.2-3.8-9.5-7.6-9.5-11.4,3.8-13.3,0-1.9-24.7-20.9-26.6,3.8-26.6-1.9-32.3-15.2-9.5-19-9.5-11.4,0-15.2-3.8-7.6-13.29-5.7-15.19,7.6-3.8,3.8-5.7-7.6-1.9-5.7-7.6-3.8-11.4-3.8-15.2,3.8-13.3,3.8-19,1.9-17.1,1.9-22.8-9.5-7.6-9.5-13.3-1.9-17.1-5.7-19-7.6-9.5-7.6-15.2-5.7-7.6-5.7-11.4,5.7-13.3,3.8-19,0-9.5-7.6-11.4-17.1-3.8-20.9,0-3.8,19-7.6,20.9-9.5,11.4-13.3,11.4-1.9,5.7-7.6,5.7-7.6,0-15.19-9.5-9.5-3.8-13.3-5.7-3.8,3.8-5.7,3.8-3.8-5.7-9.5-7.6-11.4,0-13.3-1.9,0-5.7-5.7-5.7S848,323,846.13,323s-7.6,1.9-9.5-1.9-11.4-24.7-15.2-28.5-13.3,0-19-3.8-13.3-3.8-13.3-13.3-1.9-9.5-1.9-13.3-3.8-19-11.4-11.4-7.6,9.5-9.5,11.4-1.9,7.6-3.8,9.5-5.7,3.8-7.6-1.9-15.2-9.5-20.9-7.6-5.7,5.7-11.4,7.6-9.5,0-13.3,3.8-15.2,15.2-19,15.2-5.7,3.8-11.4,3.8-7.6,1.9-9.5,3.8-5.7,7.6-5.7,9.5-1.9,7.6-3.8,5.7-5.7-11.4-7.6-11.4,0-13.3,3.8-15.2,7.6,0,9.5-5.7,3.8-7.6,0-11.4-7.6-5.7-5.7-7.6,5.7-1.9,5.7-7.6,0-26.6-5.7-30.4-5.7-7.6-5.7-13.3,0-19,1.9-22.79-1.9-5.7-1.9-9.5,0-1.9,1.9-3.8,3.8,0,9.5-1.9,17.1-5.7,19-7.6,5.7-9.5-1.9-15.2-9.5-13.3-15.2-15.2-1.9-7.6-1.9-11.4-9.5-9.5-9.5-13.3,1.9-7.6,0-11.4-3.8-1.9-5.7-5.7,0-13.3-1.9-13.3-9.5,3.8-15.2,9.5-5.7,9.5-7.6,15.2-5.7,9.5-7.59,7.6S608.64,95,604.84,95s-5.7,5.7-7.6,3.8,0-7.6-1.9-7.6-3.8,7.6-7.6,7.6-11.4-11.4-15.2-11.4-3.8-5.7-7.6-5.7-3.8,5.7-5.7,5.7-7.6-1.9-9.5,0-1.9,7.6,0,9.5,7.6,3.8,7.6,7.6,0,11.4-1.9,13.3-1.9,1.9,0,5.7,9.5,9.5,9.5,13.3-1.9,9.5,0,11.4,3.8,3.8,1.9,5.7,0,19,0,20.9,3.8,7.6,3.8,11.4,1.9,5.7,0,11.4,0,13.29-1.9,17.09-5.7,9.5-3.8,11.4,9.5,7.6,9.5,13.3-3.8,5.7-5.7,11.4-1.9,17.1-1.9,20.9,0,7.6-1.9,9.5,1.9,13.3,5.7,15.2S582,304,582,309.69s1.9,3.8,1.9,13.3-1.9,17.1-5.7,20.9-1.9,7.6,3.8,11.4,0,7.6,1.9,11.4-1.9,15.2,1.9,17.1,17.1,3.8,11.4,7.6-17.1,9.5-22.8,7.6-7.6-1.9-11.4-1.9-7.6-1.9-9.5,1.9-9.5,5.7-11.4,3.8-13.3-3.8-15.2-1.9-9.5,5.7-11.4,7.6-13.3,7.6-17.1,7.6-11.4,0-13.3-3.8-5.7-9.5-7.6-9.5-3.8-7.6-3.8-9.5-19-9.5-19-11.4-5.7-7.6,0-9.5,3.8-9.5,5.7-11.4-7.6-11.4-7.6-13.3,1.9-7.6-1.9-9.5-15.2-13.3-13.3-17.1,11.4,0,15.2-1.9,7.6-7.6,3.8-9.5-5.7-3.8-3.8-7.6,7.6-9.5,7.6-17.1-7.6-13.3-7.6-19-5.7-11.4-5.7-15.2-1.9-5.7-3.8-9.5,0-5.7,0-7.6,1.9-7.6-3.8-7.6-7.6,0-9.5-1.9a5.78,5.78,0,0,0-7.6,0,26.23,26.23,0,0,0-5.7,7.6,22.9,22.9,0,0,1-9.5,9.5c-3.8,1.9-11.4,1.9-13.3,3.8s-5.7,0-9.5,0-7.6,5.7-9.5,3.8,0-7.6-3.8-7.6-3.8,5.7-7.6,5.7-13.3,1.9-19-17.1c-7.6-5.7-9.5-24.7-9.5-30.39s-26.59-17.1-28.49-22.8-13.3-24.7-15.2-32.3-9.5-30.4-13.3-34.2-7.6-15.2-7.6-19-5.7-5.7-5.7-7.6-1.9-3.8,0-5.7,5.7-1.9,3.8-3.8l-5.7-5.7c-1.9-1.9-1.9-3.8-1.9-5.7s1.9-5.7,0-5.7-5.7,3.8-9.5,3.8-15.2,0-19,1.9-5.7,5.7-7.6,9.5-7.6,3.8-5.7,5.7,3.8,1.9,3.8,5.7a14.51,14.51,0,0,1-3.8,9.5c-1.9,1.9-22.8,15.2-26.6,15.2s-9.5,0-13.3-1.9-11.4,3.8-15.2,1.9-3.8-3.8-5.7-3.8-3.8,5.7-7.6,5.7S137.45,106.4,137.45,108.3Z"/></g></svg>