<?xml version="1.0" encoding="utf-8"?>
<!-- Generator: Adobe Illustrator 22.0.0, SVG Export Plug-In . SVG Version: 6.00 Build 0)  -->
<svg version="1.1" xmlns="http://www.w3.org/2000/svg" xmlns:xlink="http://www.w3.org/1999/xlink" x="0px" y="0px"
	 viewBox="0 0 1000 1000" style="enable-background:new 0 0 1000 1000;" xml:space="preserve">
<style type="text/css">
	.st0{display:none;}
	.st1{display:inline;}
	.st2{fill:none;stroke:#FFFFFF;stroke-width:4;stroke-linejoin:round;stroke-miterlimit:10;}
	.st3{fill:#FFFFFF;}
</style>
<g id="Layer_4" class="st0">
	<rect y="5.8" class="st1" width="1000" height="1000"/>
</g>
<g id="Layer_2">
</g>
<g id="Layer_1">
	<path class="st2" d="M626.7,25.1c0,0-4.9-4.7-6.6-6.8c-1.7-2-8.2,0.9-8.6,1.7c-0.4,0.9-5.2-0.4-5.3-2.4s-9.1-0.7-10.1-1.5
		c-1-0.7-3.3-4.2-5.8-4.5c-2.4-0.3-20.8-0.1-21.3-2c-0.4-1.9-1.7-5.9-6.3-2.7s-7,8.8-6.5,10.5c0.6,1.7,5.5,6.2,1.9,11.2
		s-9.8,9.6-7.3,10.4c2.4,0.7,10.9-2.2,12.7,2.4c1.7,4.6,6.5,15.8,4.3,19.3s-3.7,10.4-2.6,12.8c1.2,2.4-7.5-1-9.1,1.4
		c-1.6,2.4-4.5,8.6-4.6,13.7c-0.1,5-0.3,7.9-2.2,9.9c-1.9,2,2.9,4.3,2.2,6s-5.5,12.4-7.5,14.1s-9.3,1.6-9.8,3.6s-6.2,13.9-7.5,14.1
		c-1.3,0.1-2.9-6.8-3.9-7.5c-1-0.7-16.8,17-16.5,19c0.3,2,7,10.8,6.3,14.2c-0.7,3.5-4.6,3.3-4.5,5.2s8.5,15.1,6.2,18
		c-2.3,2.9-8.5,6-8.1,8.8s0.1,22.1-1.4,23.4c-1.6,1.3-11.1,1.3-13.8,4.6c-2.6,3.3-0.8,7.9-4.4,9.6c-3.6,1.7-13.5,7.3-18.1,6.6
		c-4.6-0.7-13.9-6.5-16.1-12.4c-2.2-5.9-8.5-3.5-11.6,0s-36.8-1-38.5-2.3c-1.7-1.3-2.2-7.8-7.8-9.2c-5.6-1.4-12.7,1.2-14.4,2.6
		c-1.7,1.4-7.9,1.2-9.8,2.7s-2.2,2.9,0,5.5c2.2,2.6,7.2,6.5,3.3,7.8s-12.1-2.7-12.5,0.1c-0.4,2.9,6.3,8.1,5.9,10.6
		c-0.4,2.6-2.3,7.3-5,8.2c-2.7,0.9-9.3,6.2-7.6,7.6s4.2,3.5,0.9,4.6c-3.3,1.2-12.9,3.7-13.7,6.3s-0.6,4.7-2.7,4.5
		c-2.2-0.3-9.6-5.3-9.9-1.9c-0.3,3.5,6.3,14.2,1.7,15.4c-4.6,1.2-14.4,6.9-16.1,2.2c-1.7-4.7-3.6-10.2-1.7-13.8s-4.7-13.7-6.6-13.7
		s-12.9-0.4-14.1,6.5c-1.2,6.9-5.9,7.9-8.2,8.5s-3.2,7.3-4.5,8.6c-1.3,1.3-2.2,6.9-1.3,9.6c0.9,2.7,10.8,9.3,13.7,13.1
		c2.9,3.7,11.2,4.5,11.9,5.8s4.2,8.5,4.6,11.2c0.4,2.7,4.9,5.3,4.7,9.1s0.4,5.3,1.6,7.6c1.2,2.3-1,8.9-2.7,9.8
		c-1.7,0.9-10.1,4.7-10.1,12.2s-1.4,15-3.2,17.5c-1.7,2.6-4,8.6-2.4,13.1c1.6,4.5,2.9,9.8,3.5,15.8c0.6,6,6,6.5,5.8,8.2
		c-0.3,1.7-3.5,5.3,0.6,7c4,1.7,8.3-3.9,8.8-1.7c0.4,2.2-4.2,15.4-7,20.3c-2.9,4.9-24.3,63-28.9,88.3c-4.6,25.3-11.1,40.5-10.4,47.2
		c0.7,6.6,3.2,26.6,9.2,26.2s12.9-9.8,16.1-7.8c3.2,2,4,14.7,7,15.7c3,1,13.7,0.1,18.5,1s10.4,4.2,7,9.1c-3.3,4.9,5.2,6.6,7,4.2
		s2.4-12.1,7.8-9.1c5.3,3,9.9,14.2,10.8,20.4c0.9,6.2,10.1,14.5,10.9,17.3s2.9,10.4,5.5,12.2c2.6,1.9,20.4,25.3,22.3,31.1
		s13.5,13.7,13.5,16.2s-1.6,3.2-1.9,5.8c-0.3,2.6,1.9,5,0.1,5.5c-1.7,0.4-7.3,2.3-8.8,0c-1.4-2.3-4.7-6.2-5.3-3.3
		c-0.6,2.9-1.7,6,4.6,9.3c6.3,3.3,16.1,6.5,19.4,11.4c3.3,4.9,10.4,3.7,11.9,3.7c1.6,0,9.9,3.7,9.1,6.8s-4.3,6.3-3.7,8.8
		s5.2,5,3.6,8.1c-1.6,3-5.9,6-3.2,7.8c2.7,1.7,20.3,13.8,20.7,19.6c0.4,5.7,9.7,11.8,11.9,15.7c2.2,4,24.7,30,25.2,33.6
		c0.5,3.7-1.1,8.1,1.6,7.4c2.7-0.6,5.3-3.5,7.2-1.8c1.9,1.6,20.2,12.6,22.9,17.3c2.7,4.6,18.9,27.4,17.7,30.8s-6.7,9.6-4.3,11.3
		c2.4,1.7,8.8,1.1,12.5,3.1s8.7,3.9,9.8,3.7s1.7,3.2,0.6,6.3s33.2,15.6,34.5,19.4s3.3,9.1,3.3,12.8s-0.9,10.8,0.8,13.4
		s1.4,4.5,3.1,7.5c1.7,3,9.3,12.5,11.3,10.8c2-1.7,4.1-6.7,6.5-5.9s6.4,6.9,8.2,4.8c1.8-2.1,6.9-11.3,7-15.8s-3-8.5-2-12.6
		c1-4.1,3.1-6.7,2.7-10.5s-0.5-7.5,3.7-9.1c4.2-1.5,7.2,1.1,5.3-3.2c-1.9-4.3-6.3-13.5-4.6-16.6c1.6-3.1,4.7-2.9,5.2-6.1
		s-1-4.2,2.5-6.4s7.2-2.4,8-4.4c0.8-2,4.4-7.9,0.5-9.5c-3.9-1.6-5.6-1.5-5.7-6.7s-0.4-22.6,1.5-25.1c1.9-2.5,5.6-4.2,6.9-7.3
		c1.3-3.1,4.6-5.6,4-11.2c-0.6-5.6-3-9.8-0.5-13.2s7.9-4.2,8.7-7.9c0.9-3.7-2.3-4.9,0.8-5.8c3-1,7.5,2.6,8-1
		c0.4-3.6-0.3-2.7-0.5-6.9c-0.2-4.2,1.5-5.6-0.3-8.7c-1.8-3.1-3.6-1.1-3.8-5.5c-0.2-4.4,0.5-13.5-1.2-15.1s-3.7-14.6-0.8-17
		c2.9-2.5,5,2.4,5.4-2.3c0.4-4.6-4.3-7.5,0.2-12.2c4.5-4.6,8.6-9.2,9-13.4c0.3-4.2,2.3-12.7-3.2-16.7c-5.5-4-13.5-6.4-14.6-11.9
		c-1.1-5.5,2.2-4.4-1.2-10.6s-7.4-5-4.2-10.5c3.2-5.5,16.1-9.1,20.1-13.2c4-4.1,9.2-8.2,12-12.9c2.8-4.7,3.8-11.2,6.6-14.9
		c2.8-3.7,9.4-8.7,11.3-15.4c1.9-6.7,5.7-7.7,5.5-13.5c-0.2-5.8-5.7-4.2-4.3-10.2c1.4-6,0.9-6.9,0.3-11c-0.5-4.1,2.8-12.7,5.7-16.9
		c2.9-4.2,3.5-9.7,6.1-12.7c2.7-3,3.8-2.2,1.2-6.1c-2.6-4-2.8-1.2-0.9-6.9s4.5-3.6,5.9-7.5s1.8-5.5-1.2-12.2
		c-3-6.7-2.4-4.5-4.3-11.8c-1.9-7.2-3.9-9-0.5-15.2s5.6-1.3,4.4-10.7s-0.8-19.6-8-22s-11.5,0.6-14.7-3.7c-3.1-4.3-7.9-6.5-8.4-11.9
		c-0.5-5.4-0.1,1.2,1-8.4c1.1-9.6-2.5-6.1-1.8-9.9c0.6-3.8,2.9,1.1,2.2-6.9c-0.8-8-3.5-5.4-6.6-12.7s-4-16.1-2.3-22.3
		c1.7-6.3,1-0.4,4.5-8c3.6-7.5,9.9-6,3.5-12.6c-6.5-6.6-1.9-7-7.4-10.2c-5.5-3.2-11.4,0.3-9.6-6.6c1.8-6.9-1.9-3.3,4.2-9.4
		c6.1-6,7.9-7,7.7-11c-0.2-4-0.4-13.4-3.2-17.7s-1.5-19.2-0.2-22.1c1.3-2.9,2.6-7.4,2.9-11.8s0.9-2.3,6.6-4.2
		c5.7-1.9,9.6-3.3,10.2-7.2c0.6-3.9,1.6-6.8,2.8-8.5s4-2.7,1.7-6.7c-2.3-4-6.6-3.1-7-7.8c-0.4-4.6,4.2-12.6-0.5-13.9
		s-12.9-6.1-13.9-9.6s-3.3-0.1-4.4-3.8s-11.1-10.7-12.8-12.1c-1.7-1.4-11.3,1.8-12.2-1.8s-3.2-21.4,2.8-22.6s12.8,0,12.9-6.1
		s1.9-13.9,2.9-17.9s2.7-1.4,4.5-6.7c1.8-5.3-0.3-15.4-3.9-17.5s-4.4-9.2-5.9-10.4c-1.5-1.2-10.4-6.6-10.4-10.2
		c0-3.7-5-6.8-5.3-10.6c-0.3-3.8-1.6-7.1-2.3-10.5c-0.6-3.3,1.4-8.1-0.3-10c-1.7-1.9-2.5-2.2-1.7-5.3c0.8-3.1,1.1-5.4,3.3-6.9
		c2.3-1.5,9.2-4.3,7.4-7.1c-1.7-2.8-6.3-4.2-5.1-8c1.2-3.8-1.2-22.4-3.3-22.9c-2.2-0.4-3.6-1-2.6-5.6c1-4.6,2.9-10.8,1.8-14.3
		s-5.4-4-5.8-7.2c-0.4-3.2-0.4-5.4-3.6-5.8c-3.1-0.4-2.6,2.7-5.8,3.6c-3.2,0.9-7.4,3.2-10,2.6c-2.6-0.6-6.1,0-6,2.7
		S627.3,25.7,626.7,25.1z"/>
</g>
<g id="Layer_3">
	<g>
		<g>
			<path class="st3" d="M438.1,282.9c-18.5,0-33.5,15-33.5,33.5c0,7.4,4.4,18.7,13.8,35.5c6.4,11.5,12.8,21.2,13,21.6l4.6,7
				c0.5,0.7,1.3,1.1,2.1,1.1s1.6-0.4,2.1-1.1l4.6-7c0.3-0.4,6.6-10,13-21.6c9.4-16.8,13.8-28.1,13.8-35.5
				C471.6,297.9,456.6,282.9,438.1,282.9z M453.5,349.5c-6.4,11.4-12.6,20.9-12.9,21.3l-2.5,3.8l-2.5-3.8
				c-0.3-0.4-6.5-9.9-12.9-21.3c-8.7-15.6-13.1-26.7-13.1-33.1c0-15.7,12.8-28.5,28.5-28.5s28.5,12.8,28.5,28.5
				C466.6,322.7,462.2,333.9,453.5,349.5z"/>
			<path class="st3" d="M438.1,297.6c-10.2,0-18.6,8.3-18.6,18.6c0,10.2,8.3,18.6,18.6,18.6s18.6-8.3,18.6-18.6
				C456.7,305.9,448.3,297.6,438.1,297.6z M438.1,329.7c-7.5,0-13.6-6.1-13.6-13.6c0-7.5,6.1-13.6,13.6-13.6
				c7.5,0,13.6,6.1,13.6,13.6C451.7,323.6,445.6,329.7,438.1,329.7z"/>
		</g>
	</g>
</g>
</svg>
